<?xml version="1.0" encoding="UTF-8" standalone="no"?>
<!-- Created with Inkscape (http://www.inkscape.org/) -->

<svg
   version="1.1"
   id="svg55"
   width="53.439999"
   height="75.519997"
   viewBox="0 0 53.439999 75.519997"
   sodipodi:docname="moonIC.svg"
   inkscape:version="1.1.2 (0a00cf5339, 2022-02-04)"
   xmlns:inkscape="http://www.inkscape.org/namespaces/inkscape"
   xmlns:sodipodi="http://sodipodi.sourceforge.net/DTD/sodipodi-0.dtd"
   xmlns="http://www.w3.org/2000/svg"
   xmlns:svg="http://www.w3.org/2000/svg">
  <defs
     id="defs59" />
  <sodipodi:namedview
     id="namedview57"
     pagecolor="#ffffff"
     bordercolor="#666666"
     borderopacity="1.0"
     inkscape:pageshadow="2"
     inkscape:pageopacity="0.0"
     inkscape:pagecheckerboard="0"
     showgrid="false"
     inkscape:zoom="6.7002122"
     inkscape:cx="26.715572"
     inkscape:cy="37.759998"
     inkscape:window-width="1364"
     inkscape:window-height="702"
     inkscape:window-x="0"
     inkscape:window-y="0"
     inkscape:window-maximized="1"
     inkscape:current-layer="g61" />
  <g
     inkscape:groupmode="layer"
     inkscape:label="Image"
     id="g61">
    <g
       id="g261"
       transform="translate(0.26939363,-1.3918399)">
      <path
         style="fill:#e2e2e2;stroke-width:0.32"
         d="M 22.08,62.559534 C 16.184426,61.368154 10.887014,58.240202 7.1773435,53.759998 4.2646175,50.24227 1.7645631,43.877669 1.5837859,39.519998 1.4436653,36.142363 1.5645189,36.110104 5.0205557,38.602597 10.22555,42.35644 15.186061,44.074971 19.886501,43.752795 c 7.225665,-0.495258 12.496801,-6.371593 12.982257,-14.472796 0.310678,-5.184565 -1.377811,-9.636704 -5.096386,-13.437947 -1.204103,-1.230871 -2.148295,-2.45487 -2.098204,-2.719999 0.319262,-1.689864 9.402884,0.215045 13.840647,2.902495 4.538832,2.748655 7.447728,5.936424 9.759789,10.695451 1.880016,3.869727 2.622521,6.995452 2.622521,11.04 0,1.671999 -0.240272,4.119999 -0.533939,5.439999 -0.689862,3.100855 -3.219728,8.296691 -5.181945,10.642675 C 40.325698,60.843434 30.741437,64.309837 22.08,62.559534 Z"
         id="path275" />
      <path
         style="fill:#d7d7d7;stroke-width:0.32"
         d="M 20.658173,62.049418 C 10.361859,59.520775 2.6966295,50.515883 1.7263879,39.808898 1.5434084,37.78965 1.5883345,37.424389 2.0410419,37.250667 c 0.2904608,-0.111459 0.7958455,-0.0065 1.123077,0.233338 6.5902243,4.829331 10.5713661,6.462832 15.7158811,6.448384 4.549544,-0.01278 7.995739,-1.668032 10.732518,-5.154973 5.390029,-6.867453 4.389401,-17.629645 -2.200187,-23.664007 -0.820782,-0.751625 -1.492331,-1.579625 -1.492331,-1.84 0,-0.704217 3.401613,-0.612369 6.712217,0.181239 8.786214,2.106206 15.769552,8.884686 18.300307,17.763459 1.028787,3.609335 1.028787,9.474448 0,13.083782 -2.530755,8.878774 -9.514093,15.657254 -18.300307,17.763459 -3.561117,0.853661 -8.459718,0.847146 -11.974044,-0.01594 z m 7.366503,-2.236688 c 1.157577,-1.279107 3.507665,-2.769583 5.255323,-3.333036 3.66704,-1.182269 5.312768,-2.303603 9.116842,-6.211862 2.549881,-2.619715 2.822886,-3.041322 3.54063,-5.467834 0.286327,-0.968 1.014618,-2.957145 1.618423,-4.420323 1.001987,-2.428073 1.06679,-2.77559 0.742297,-3.980672 -0.403897,-1.499955 -2.252809,-3.541206 -3.065001,-3.383846 -0.327044,0.06336 -0.741325,0.726122 -1.047159,1.675226 -0.511926,1.588672 -0.779984,1.867401 -2.319446,2.411779 -0.618208,0.218608 -1.265312,1.057414 -2.347923,3.043494 -0.821981,1.507942 -1.760477,2.884054 -2.085549,3.058029 -0.904125,0.483872 -2.424554,0.376793 -2.907187,-0.204743 -0.373968,-0.450604 -0.483101,-0.136915 -0.80713,2.32 -0.20608,1.562579 -0.477731,3.302141 -0.60367,3.865693 -0.210429,0.941619 -0.154691,1.041008 0.687945,1.226726 1.915556,0.422189 1.938647,0.48049 0.609604,1.539143 -0.697031,0.555222 -1.928282,1.61431 -2.736118,2.353529 -2.173892,1.989242 -3.15498,2.108669 -8.167244,0.99417 -2.282122,-0.50744 -4.763338,-1.218954 -5.513813,-1.581136 -1.088855,-0.525488 -1.606006,-0.601764 -2.56,-0.377568 -1.095349,0.257411 -1.203977,0.383248 -1.296688,1.502112 -0.182299,2.200028 0.911631,2.865398 6.861948,4.173695 2.074531,0.456132 3.914832,0.972282 4.089557,1.147008 0.563691,0.563693 2.29446,0.357498 2.934359,-0.349584 z"
         id="path273" />
      <path
         style="fill:#c8c8c8;stroke-width:0.32"
         d="M 21.76,62.262711 C 17.167968,61.294906 13.148032,59.176698 9.7155531,55.91618 4.9931001,51.430312 2.41523,46.153621 1.7464581,39.604091 c -0.2970678,-2.909292 0.070937,-2.98934 3.2497834,-0.706896 9.2235555,6.622611 18.0886985,6.955712 23.8206305,0.895037 6.315147,-6.677337 5.677716,-18.23466 -1.368078,-24.804727 -2.107047,-1.96478 -1.872444,-2.335478 1.317211,-2.081335 3.479338,0.277224 5.845412,0.958959 9.313994,2.68363 2.520797,1.253407 3.537408,2.005037 5.952381,4.400884 3.284979,3.258964 5.097555,6.069687 6.362937,9.866859 1.772397,5.318628 1.772397,10.486283 0,15.80491 -1.265382,3.797174 -3.077958,6.607897 -6.362937,9.86686 -2.414973,2.395846 -3.431584,3.147478 -5.952381,4.400883 -1.672,0.831363 -3.904,1.73929 -4.96,2.017616 -2.646,0.697392 -8.7432,0.866406 -11.359999,0.314899 z m 8.908616,-2.129737 c 0.58774,-0.343837 2.171739,-0.920762 3.520001,-1.282052 1.348259,-0.361292 2.900246,-0.869878 3.448861,-1.130191 1.557216,-0.738893 5.041344,-3.747031 6.831737,-5.898407 2.086531,-2.507222 3.069786,-4.470332 3.527338,-7.042486 0.201529,-1.132912 0.716748,-2.833241 1.144931,-3.778508 0.960339,-2.120068 1.005325,-4.237927 0.138454,-6.517898 -0.352032,-0.925888 -0.795475,-2.539604 -0.98543,-3.586034 -0.189955,-1.04643 -0.606883,-2.415203 -0.926509,-3.041717 -0.700992,-1.374059 -3.554905,-3.855682 -4.434105,-3.855682 -0.874884,0 -1.333895,1.493997 -1.333895,4.341579 0,1.279342 -0.08744,2.553947 -0.194313,2.832454 -0.106874,0.278507 -0.81456,0.78074 -1.572634,1.116072 -0.758074,0.335332 -1.537555,0.907235 -1.732179,1.270893 -0.194624,0.363658 -1.394941,1.16607 -2.66737,1.783136 -2.128963,1.032445 -2.438019,1.314202 -3.874516,3.532304 l -1.561012,2.410368 0.212149,2.156595 0.212149,2.156598 -1.771137,2.820131 c -0.974125,1.551075 -1.771137,3.099075 -1.771137,3.44 0,1.132486 -2.328315,0.815712 -5.439999,-0.740131 -2.661853,-1.330925 -2.788825,-1.359926 -5.939431,-1.35649 -2.580335,0.0029 -3.397401,0.120122 -4.115952,0.590935 -0.809734,0.530557 -0.876666,0.71159 -0.691416,1.87008 0.293784,1.837225 0.945413,2.929123 2.501834,4.192176 4.651764,3.774956 13.981509,5.759206 17.473581,3.716275 z M 41.683714,21.999999 c 0.651172,-1.711491 -4.064185,-5.225637 -8.508147,-6.340743 -1.274411,-0.319783 -1.619277,-0.309887 -1.972537,0.0566 -0.359491,0.372955 -0.194968,0.854448 1.026499,3.00414 0.800035,1.408 1.506208,2.618532 1.569277,2.690071 0.06307,0.07154 0.656137,-0.113575 1.317929,-0.411366 1.146458,-0.515874 1.28984,-0.511599 3.037072,0.09056 1.008595,0.3476 2.088595,0.780335 2.4,0.961634 0.749213,0.436191 0.947991,0.427236 1.129907,-0.0509 z"
         id="path271" />
      <path
         style="fill:#b2b2b2;stroke-width:0.32"
         d="M 22.985873,62.414554 C 12.721135,60.531466 5.0791183,53.530497 2.5673248,43.708811 1.9123875,41.147854 1.7000368,37.613714 2.1831573,37.315128 c 0.1447365,-0.08945 1.3080238,0.623398 2.5850826,1.584112 4.8907734,3.679254 9.7900221,5.405139 14.7517601,5.196675 2.647365,-0.111229 3.32931,-0.266989 5.28,-1.205981 5.236375,-2.520604 8.479999,-8.093647 8.479999,-14.569935 0,-4.96596 -1.682639,-9.113788 -5.180016,-12.769116 -1.177009,-1.230166 -2.057337,-2.370444 -1.956284,-2.533951 0.26663,-0.431416 4.422771,0.01262 7.123699,0.761085 10.920588,3.02625 18.252601,12.659735 18.252601,23.981982 0,11.340812 -7.288665,20.904168 -18.294838,24.004395 -2.631222,0.741165 -7.914552,1.07664 -10.239288,0.65016 z m 7.158376,-1.637225 c 8.225584,-1.662192 14.126534,-6.042854 17.522742,-13.008284 2.79465,-5.731664 2.939414,-13.37481 0.366899,-19.371249 -2.226761,-5.190502 -7.301382,-10.053034 -12.816207,-12.280571 -1.796724,-0.725729 -5.386156,-1.57542 -5.629063,-1.332513 -0.0598,0.0598 0.609097,1.222632 1.486441,2.584069 4.225655,6.557248 4.772586,12.634731 1.691009,18.790475 -1.815939,3.627517 -4.590915,6.679648 -7.264244,7.989769 -4.062735,1.991028 -9.675777,1.939476 -14.637331,-0.134438 -3.2395921,-1.354137 -3.0998852,-1.357197 -3.4858804,0.07628 -0.1887645,0.701017 -0.5426131,1.440067 -0.7863306,1.642336 -0.8334556,0.691705 -0.7935139,1.635507 0.1446957,3.419071 2.5201056,4.790797 6.5656113,8.414893 11.4635353,10.269408 4.232699,1.60264 8.387667,2.074237 11.943734,1.355645 z"
         id="path269" />
      <path
         style="fill:#8e8e8e;stroke-width:0.32"
         d="M 22.56,62.212023 C 22.208,62.127962 21.272,61.898468 20.48,61.702039 12.399029,59.697818 5.1472633,52.606366 2.9118189,44.522235 2.1090799,41.619256 1.6779585,37.439999 2.1812338,37.439999 c 0.1922304,0 1.3280925,0.733065 2.524138,1.629033 5.6356022,4.221677 12.0509452,6.116496 17.1188772,5.056182 C 33.778172,41.62421 37.57607,24.764218 28.279647,15.467796 27.157841,14.345989 26.24,13.337499 26.24,13.226707 c 0,-0.110793 1.259999,-0.113109 2.799999,-0.0051 6.064986,0.425185 11.270599,3.010795 15.81297,7.854247 2.72056,2.900883 4.6787,6.345692 5.754924,10.124192 1.035773,3.63649 1.035773,9.483511 0,13.12 C 49.040684,49.82234 45.099385,55.22882 40.372969,58.359809 36.073635,61.207882 33.110662,62.10506 27.519999,62.251645 25.144,62.313894 22.912,62.296086 22.56,62.212022 Z M 32.639999,60.466039 C 46.343759,56.696897 53.762261,42.073982 48.535487,29.133793 46.656809,24.482652 42.937266,20.083252 38.811026,17.631898 34.556639,15.104415 26.700135,13.218902 29.253744,15.33821 c 0.24956,0.207116 1.057696,1.303554 1.795858,2.436528 3.754049,5.761934 4.264925,12.731256 1.359441,18.545261 -4.893548,9.792198 -15.200715,11.677145 -26.1755718,4.786921 l -2.7876137,-1.750118 0.2233732,1.841596 c 0.277879,2.290973 1.5461439,6.176627 2.6378085,8.0816 5.3922688,9.4096 16.1605858,13.983897 26.3329598,11.186041 z"
         id="path267" />
      <path
         style="fill:#6f6f6f;stroke-width:0.32"
         d="M 22.046462,61.918686 C 11.41507,59.800129 3.4320175,51.086033 2.2845655,40.347102 2.083014,38.460795 2.122244,37.982302 2.4900191,37.841176 3.119126,37.599765 3.5125279,38.357358 3.3027436,39.40628 2.7889262,41.975368 5.6485906,49.404603 8.4582581,52.799998 14.186438,59.722321 23.751095,62.950634 32.160115,60.799969 42.00495,58.282084 48.820668,50.587608 50.320345,40.298325 51.640159,31.243097 45.955852,20.898707 37.279999,16.567296 34.127343,14.993335 29.078041,13.770881 28.32182,14.398488 27.928518,14.724901 26.56,13.966286 26.56,13.421854 c 0,-0.802429 5.767087,0.131748 9.174857,1.486183 13.314848,5.292047 19.293078,20.605542 13.10615,33.571961 -4.728349,9.909564 -16.038448,15.582095 -26.794545,13.438688 z"
         id="path265" />
      <path
         style="fill:#4e4e4e;stroke-width:0.32"
         d="M 21.28,61.558151 C 17.871282,60.843428 13.052823,58.363338 10.468266,55.993287 5.6948057,51.615998 3.0407185,46.327304 2.3816782,39.879458 2.197739,38.079854 2.2372218,37.706389 2.5983794,37.829685 c 0.2919296,0.09966 0.4074542,0.534713 0.3408225,1.283494 -0.1216535,1.367091 0.914934,5.886317 1.8493715,8.062726 1.9337878,4.504013 6.4635366,9.380992 10.8165176,11.645661 3.81529,1.984934 6.900426,2.747568 11.114908,2.747568 6.654048,0 11.836493,-2.179946 16.64008,-6.999488 3.265543,-3.276387 4.598016,-5.343958 6.036096,-9.366061 0.951376,-2.660854 1.00183,-3.039814 0.991075,-7.443586 -0.01018,-4.169322 -0.09855,-4.899684 -0.871104,-7.2 -1.282515,-3.818741 -2.915878,-6.370783 -6.150387,-9.609647 -2.190608,-2.193561 -3.5068,-3.211079 -5.463869,-4.224 -2.975062,-1.539803 -6.931387,-2.716519 -8.876061,-2.639974 -1.893054,0.07451 -2.14583,0.03607 -2.14583,-0.326379 0,-0.469213 2.237266,-0.39056 5.053491,0.177659 7.180474,1.448778 13.932775,6.867966 17.007907,13.650026 1.600263,3.529309 2.052583,5.770932 2.052583,10.172315 0,4.401382 -0.45232,6.643004 -2.052583,10.172313 -3.075132,6.78206 -9.827433,12.20125 -17.007907,13.650028 -3.03396,0.61215 -7.668788,0.601626 -10.65349,-0.02419 z"
         id="path263" />
    </g>
  </g>
</svg>
