<?xml version="1.0" encoding="UTF-8" standalone="no"?>
<!-- Created with Inkscape (http://www.inkscape.org/) -->

<svg
   version="1.1"
   id="svg2002"
   width="70.400002"
   height="70.400002"
   viewBox="0 0 70.400002 70.400002"
   sodipodi:docname="sunIC.svg"
   inkscape:version="1.1.2 (0a00cf5339, 2022-02-04)"
   xmlns:inkscape="http://www.inkscape.org/namespaces/inkscape"
   xmlns:sodipodi="http://sodipodi.sourceforge.net/DTD/sodipodi-0.dtd"
   xmlns="http://www.w3.org/2000/svg"
   xmlns:svg="http://www.w3.org/2000/svg">
  <defs
     id="defs2006" />
  <sodipodi:namedview
     id="namedview2004"
     pagecolor="#ffffff"
     bordercolor="#666666"
     borderopacity="1.0"
     inkscape:pageshadow="2"
     inkscape:pageopacity="0.0"
     inkscape:pagecheckerboard="0"
     showgrid="false"
     inkscape:zoom="7.556818"
     inkscape:cx="35.200001"
     inkscape:cy="35.200001"
     inkscape:window-width="1364"
     inkscape:window-height="702"
     inkscape:window-x="0"
     inkscape:window-y="0"
     inkscape:window-maximized="1"
     inkscape:current-layer="g2008" />
  <g
     inkscape:groupmode="layer"
     inkscape:label="Image"
     id="g2008">
    <g
       id="g2128"
       transform="translate(0.79782961,0.13005316)">
      <path
         style="fill:#fdfcc6;stroke-width:0.32"
         d="m 32.704001,68.736002 c -0.509664,-0.509664 -0.509664,-4.802336 0,-5.312 0.221091,-0.221091 1.28,-0.384 2.496,-0.384 1.216,0 2.274909,0.162909 2.496,0.384 0.226554,0.226553 0.384,1.315555 0.384,2.656 0,1.340445 -0.157446,2.429446 -0.384,2.656 -0.221091,0.221091 -1.28,0.384 -2.496,0.384 -1.216,0 -2.274909,-0.162909 -2.496,-0.384 z M 11.269069,59.109938 c -0.917988,-0.929533 -1.6690687,-1.834452 -1.6690687,-2.010932 0,-0.506928 3.3270267,-3.659004 3.8620917,-3.659004 0.62169,0 3.497908,2.912409 3.497908,3.541923 0,0.528822 -3.188388,3.818077 -3.700993,3.818077 -0.176478,0 -1.07195,-0.760528 -1.989938,-1.690064 z m 43.840001,0 c -0.917987,-0.929533 -1.669068,-1.906948 -1.669068,-2.172029 0,-0.62169 2.912409,-3.497907 3.541923,-3.497907 0.528822,0 3.818077,3.18839 3.818077,3.700995 0,0.41584 -3.280381,3.659005 -3.700996,3.659005 -0.176476,0 -1.071948,-0.760528 -1.989936,-1.690064 z M 32.320001,60.122034 C 23.835281,59.198523 16.442941,53.990462 12.615797,46.240001 10.721585,42.403976 9.901959,39.059668 9.8944054,35.135943 9.867303,21.057652 21.219151,9.6044841 35.200001,9.6044841 c 13.891693,0 25.275518,11.3838249 25.275518,25.2755169 0,14.983719 -13.251767,26.864212 -28.155518,25.242033 z M 1.664,37.696001 c -0.5057705,-0.50577 -0.5057705,-4.48623 0,-4.992 0.226554,-0.226554 1.3155556,-0.384 2.6560001,-0.384 1.3404445,0 2.4294462,0.157446 2.6560001,0.384 0.5057706,0.50577 0.5057706,4.48623 0,4.992 -0.5096647,0.509664 -4.8023354,0.509664 -5.3120002,0 z m 61.760002,0 c -0.221091,-0.221091 -0.384,-1.28 -0.384,-2.496 0,-1.216 0.162909,-2.274909 0.384,-2.496 0.226553,-0.226554 1.315555,-0.384 2.656,-0.384 1.340445,0 2.429446,0.157446 2.656,0.384 0.221091,0.221091 0.384,1.28 0.384,2.496 0,1.216 -0.162909,2.274909 -0.384,2.496 -0.509664,0.509664 -4.802336,0.509664 -5.312,0 z M 11.269069,15.269938 c -0.917988,-0.929534 -1.6690687,-1.834453 -1.6690687,-2.010931 0,-0.415842 3.2803807,-3.6590067 3.7009937,-3.6590067 0.506929,0 3.659006,3.3270267 3.659006,3.8620917 0,0.62169 -2.91241,3.497908 -3.541922,3.497908 -0.263967,0 -1.231021,-0.760528 -2.149009,-1.690062 z m 43.678904,0.159071 c -0.829386,-0.842046 -1.507971,-1.746965 -1.507971,-2.010931 0,-0.528822 3.18839,-3.8180777 3.700995,-3.8180777 0.41584,0 3.659005,3.2803807 3.659005,3.7009937 0,0.506929 -3.327028,3.659006 -3.862093,3.659006 -0.265082,0 -1.160554,-0.688946 -1.989936,-1.530991 z M 32.704001,6.9760002 c -0.509664,-0.5096647 -0.509664,-4.8023354 0,-5.3120002 0.50577,-0.5057705 4.48623,-0.5057705 4.992,0 0.509664,0.5096648 0.509664,4.8023355 0,5.3120002 -0.50577,0.5057706 -4.48623,0.5057706 -4.992,0 z"
         id="path2142" />
      <path
         style="fill:#fdfcb2;stroke-width:0.32"
         d="m 32.779652,68.382367 c -0.0941,-0.245226 -0.128019,-1.439575 -0.07537,-2.654112 l 0.09572,-2.208253 h 2.4 2.4 v 2.56 2.56 l -2.324627,0.09411 c -1.757904,0.07117 -2.366339,-0.01459 -2.495722,-0.351747 z M 11.427971,58.94901 c -0.829384,-0.842045 -1.5079707,-1.640215 -1.5079707,-1.773709 0,-0.497552 2.9876847,-3.415299 3.4971627,-3.415299 0.669026,0 3.222837,2.574006 3.222837,3.248323 0,0.504925 -2.938247,3.471677 -3.43832,3.471677 -0.146156,0 -0.944325,-0.688948 -1.773709,-1.530992 z m 43.918322,0.0472 c -0.872461,-0.816083 -1.586291,-1.710634 -1.586291,-1.987888 0,-0.674317 2.553811,-3.248323 3.222838,-3.248323 0.523146,0 3.497162,2.923974 3.497162,3.43832 0,0.330409 -2.971975,3.28168 -3.304701,3.28168 -0.133495,0 -0.956547,-0.667706 -1.829008,-1.483789 z m -23.833795,0.869104 c -8.551532,-1.371175 -15.573856,-6.6872 -19.199453,-14.53433 -1.625913,-3.519075 -2.167822,-6.153271 -2.149984,-10.450986 0.01894,-4.564268 0.737788,-7.492173 2.84983,-11.60757 1.241653,-2.41941 2.066912,-3.504141 4.571156,-6.008384 2.504243,-2.504244 3.588974,-3.329503 6.008384,-4.571156 4.141389,-2.125381 7.046987,-2.8350485 11.60757,-2.8350485 4.560583,0 7.466183,0.7096675 11.607572,2.8350485 2.419408,1.241653 3.504137,2.066912 6.008384,4.571156 2.504243,2.504243 3.329501,3.588974 4.571155,6.008384 2.125379,4.141389 2.835047,7.046987 2.835047,11.60757 0,2.699542 -0.175821,4.342759 -0.659924,6.167571 -2.325827,8.767175 -9.902397,16.297537 -18.442234,18.32977 -2.399286,0.570961 -7.480426,0.829037 -9.607503,0.487975 z m 9.768706,-2.607159 c 6.363965,-1.763545 11.435412,-6.017517 14.279972,-11.978157 1.092346,-2.28896 2.283117,-6.422377 1.947008,-6.758483 -0.234189,-0.234189 -44.397014,-0.219354 -44.631361,0.01501 -0.323389,0.323389 0.892457,4.502301 1.962004,6.743488 2.805674,5.879159 7.65583,10.009796 13.961174,11.890032 3.333213,0.993959 9.066323,1.034436 12.481203,0.08812 z M 1.7386844,37.339844 C 1.6442897,37.093854 1.6104696,35.971758 1.6635288,34.846295 L 1.76,32.800001 h 2.5600001 2.5600001 v 2.4 2.4 l -2.4848446,0.09355 c -1.89776,0.07144 -2.5253939,-0.01213 -2.6564712,-0.353707 z m 61.7600026,0 c -0.09439,-0.24599 -0.128215,-1.368086 -0.07516,-2.493549 l 0.09647,-2.046294 h 2.56 2.56 v 2.4 2.4 l -2.484845,0.09355 c -1.89776,0.07144 -2.525392,-0.01213 -2.65647,-0.353706 z M 11.40379,15.05371 c -0.816084,-0.87246 -1.4837897,-1.705874 -1.4837897,-1.85203 0,-0.330408 2.9719747,-3.2816797 3.3047007,-3.2816797 0.483338,0 3.415299,2.9803607 3.415299,3.4716767 0,0.674316 -2.553811,3.248323 -3.222837,3.248323 -0.291271,0 -1.197289,-0.713831 -2.013373,-1.58629 z m 43.702839,0.214178 c -0.740647,-0.754662 -1.346627,-1.598957 -1.346627,-1.876211 0,-0.504924 2.938246,-3.4716767 3.43832,-3.4716767 0.330409,0 3.28168,2.9719747 3.28168,3.3047007 0,0.497553 -2.987684,3.415299 -3.497162,3.415299 -0.291274,0 -1.135568,-0.61745 -1.876211,-1.372112 z M 32.779652,6.622364 C 32.685553,6.3771403 32.651633,5.1827896 32.704279,3.9682513 L 32.800001,1.76 h 2.4 2.4 v 2.5600001 2.5600001 l -2.324627,0.094112 C 33.51747,7.0452815 32.909035,6.9595269 32.779652,6.622364 Z"
         id="path2140" />
      <path
         style="fill:#fcfc89;stroke-width:0.32"
         d="m 32.960001,66.080002 v -2.4 h 2.24 2.24 v 2.4 2.4 h -2.24 -2.24 z m -21.322106,-7.317895 -1.508166,-1.508166 1.563106,-1.58697 c 0.859709,-0.872832 1.719295,-1.586969 1.910193,-1.586969 0.431049,0 2.716972,2.309942 2.716972,2.74552 0,0.175196 -0.714136,1.021936 -1.586969,1.881644 l -1.586969,1.563108 z m 19.874603,1.10321 c -8.551532,-1.371175 -15.573856,-6.6872 -19.199453,-14.53433 -1.625913,-3.519075 -2.167822,-6.153271 -2.149984,-10.450986 0.01894,-4.564268 0.737788,-7.492173 2.84983,-11.60757 1.241653,-2.41941 2.066912,-3.504141 4.571156,-6.008384 2.504243,-2.504244 3.588974,-3.329503 6.008384,-4.571156 4.141389,-2.125381 7.046987,-2.8350485 11.60757,-2.8350485 4.560583,0 7.466183,0.7096675 11.607572,2.8350485 2.419408,1.241653 3.504137,2.066912 6.008384,4.571156 2.504243,2.504243 3.329501,3.588974 4.571155,6.008384 2.125379,4.141389 2.835047,7.046987 2.835047,11.60757 0,2.699542 -0.175821,4.342759 -0.659924,6.167571 -2.325827,8.767175 -9.902397,16.297537 -18.442234,18.32977 -2.399286,0.570961 -7.480426,0.829037 -9.607503,0.487975 z m 9.087865,-2.272355 C 45.515726,56.414613 50.45892,53.270459 53.30972,49.509083 58.649477,42.463752 59.684082,33.432804 56.030466,25.760001 53.578597,20.610931 50.149179,17.154564 45.080542,14.724029 40.537284,12.545425 35.216567,11.91418 30.240001,12.963358 27.468031,13.547755 22.82751,15.789932 20.457578,17.689965 15.590439,21.592072 12.16,28.897333 12.16,35.360001 c 0,6.453472 3.416561,13.73 8.258917,17.58969 5.777813,4.605315 13.20837,6.314909 20.181446,4.643271 z m 14.971408,1.0196 c -0.820473,-0.832999 -1.491769,-1.660372 -1.491769,-1.838608 0,-0.414356 2.323235,-2.693952 2.74552,-2.693952 0.175196,0 1.009216,0.701219 1.853376,1.558268 l 1.534835,1.558266 -1.030752,1.173962 c -1.702355,1.938873 -1.9252,1.953811 -3.61121,0.242064 z M 1.9200001,35.200001 v -2.24 h 2.4 2.4000001 v 2.24 2.24 h -2.4000001 -2.4 z m 61.7600019,0 v -2.24 h 2.4 2.4 v 2.24 2.24 h -2.4 -2.4 z m -51.987167,-20.46697 -1.563106,-1.586969 1.508166,-1.508167 1.508167,-1.508166 1.586969,1.563106 C 15.605864,12.552544 16.32,13.41213 16.32,13.603028 16.32,14.034077 14.010057,16.32 13.574479,16.32 c -0.175196,0 -1.021935,-0.714136 -1.881644,-1.586969 z m 43.572111,0.373477 c -0.651719,-0.66742 -1.184944,-1.356833 -1.184944,-1.532029 0,-0.175196 0.714137,-1.021935 1.586969,-1.881644 l 1.58697,-1.563106 1.508166,1.508166 1.508167,1.508167 -1.563108,1.586969 C 57.847458,15.605864 56.98787,16.32 56.796974,16.32 c -0.190896,0 -0.88031,-0.546071 -1.532028,-1.213492 z M 32.960001,4.3200001 v -2.4 h 2.24 2.24 v 2.4 2.4000001 h -2.24 -2.24 z"
         id="path2138" />
      <path
         style="fill:#a5a59a;stroke-width:0.32"
         d="m 31.512498,59.865317 c -8.551532,-1.371175 -15.573856,-6.6872 -19.199453,-14.53433 -1.625913,-3.519075 -2.167822,-6.153271 -2.149984,-10.450986 0.01894,-4.564268 0.737788,-7.492173 2.84983,-11.60757 1.241653,-2.41941 2.066912,-3.504141 4.571156,-6.008384 2.504243,-2.504244 3.588974,-3.329503 6.008384,-4.571156 4.141389,-2.125381 7.046987,-2.8350485 11.60757,-2.8350485 4.560583,0 7.466183,0.7096675 11.607572,2.8350485 2.419408,1.241653 3.504137,2.066912 6.008384,4.571156 2.504243,2.504243 3.329501,3.588974 4.571155,6.008384 2.125379,4.141389 2.835047,7.046987 2.835047,11.60757 0,2.699542 -0.175821,4.342759 -0.659924,6.167571 -2.325827,8.767175 -9.902397,16.297537 -18.442234,18.32977 -2.399286,0.570961 -7.480426,0.829037 -9.607503,0.487975 z m 9.087865,-2.272355 c 3.093273,-0.741543 6.767034,-2.559981 9.380723,-4.643271 4.915264,-3.917805 8.258916,-11.103824 8.258916,-17.74969 0,-6.645864 -3.343652,-13.831886 -8.258916,-17.749691 C 36.515207,6.7170799 16.767928,13.277186 12.80704,29.799641 c -1.61988,6.757173 -0.04662,13.996578 4.283241,19.709442 5.180807,6.835613 14.849315,10.160103 23.510082,8.083879 z"
         id="path2136" />
      <path
         style="fill:#98986f;stroke-width:0.32"
         d="m 30.400001,59.383384 c -6.19961,-1.313533 -11.843524,-4.885133 -15.200004,-9.618919 -3.341224,-4.712269 -4.700209,-8.89176 -4.73572,-14.564464 -0.02653,-4.238489 0.40357,-6.607581 1.771904,-9.76 3.269285,-7.53191 10.110424,-13.297353 17.68382,-14.903231 2.468,-0.52332 8.092,-0.52332 10.56,0 7.573396,1.605878 14.414535,7.371321 17.683821,14.903231 1.329024,3.061857 1.786532,5.47932 1.786532,9.44 0,3.960682 -0.457508,6.378144 -1.786532,9.44 -3.115715,7.178109 -9.100921,12.528666 -16.295456,14.567546 -3.041552,0.861952 -8.605066,1.102493 -11.468365,0.495837 z m 10.72,-1.640358 c 6.488644,-1.712106 12.121121,-6.373005 15.043245,-12.448353 1.535626,-3.192697 2.066487,-5.782253 2.072026,-10.10744 0.0057,-4.482452 -0.457219,-6.480132 -2.444314,-10.547232 -2.801206,-5.733397 -8.38655,-10.23272 -14.710394,-11.850087 -3.34319,-0.855044 -8.417936,-0.855044 -11.761125,0 -6.323844,1.617367 -11.90919,6.11669 -14.710397,11.850087 -1.987093,4.0671 -2.450053,6.06478 -2.444312,10.547232 0.0055,4.325187 0.536399,6.914743 2.072026,10.10744 3.369323,7.005114 9.907458,11.768615 17.923245,13.058378 1.69367,0.272515 6.97905,-0.08733 8.96,-0.610025 z"
         id="path2134" />
      <path
         style="fill:#606054;stroke-width:0.32"
         d="M 31.629748,59.502907 C 28.768201,59.108674 24.454001,57.509304 22.035342,55.94605 14.638834,51.165457 10.497843,43.604516 10.497843,34.880001 c 0,-9.765333 5.087714,-17.84262 14.096229,-22.379264 4.716538,-2.375225 11.523731,-3.0561214 16.731859,-1.673621 8.688896,2.306473 15.620483,9.238059 17.926954,17.926956 0.897178,3.379827 0.897178,8.872031 0,12.251859 -2.297296,8.654323 -9.326378,15.703587 -17.82633,17.877511 -2.918848,0.746515 -7.001044,1.00464 -9.796807,0.619465 z m 9.199066,-1.578502 c 4.272493,-1.072848 7.561418,-2.94177 10.696183,-6.078071 3.067561,-3.069065 4.729325,-5.68919 5.991152,-9.446333 0.775795,-2.309961 0.859769,-3.01319 0.859769,-7.2 0,-4.186808 -0.08397,-4.890037 -0.859769,-7.2 -1.240727,-3.694313 -2.920922,-6.366689 -5.835191,-9.280957 -2.914269,-2.914269 -5.586643,-4.594464 -9.280957,-5.83519 -2.309961,-0.775795 -3.01319,-0.859769 -7.2,-0.859769 -4.186808,0 -4.890037,0.08397 -7.2,0.859769 -3.694313,1.240726 -6.366689,2.920921 -9.280957,5.83519 -2.914269,2.914268 -4.594464,5.586644 -5.83519,9.280957 -0.775795,2.309963 -0.859769,3.013192 -0.859769,7.2 0,4.18681 0.08397,4.890039 0.859769,7.2 1.261828,3.757143 2.92359,6.377268 5.99115,9.446333 3.096227,3.097744 6.390727,4.987837 10.564997,6.061261 3.29335,0.846893 8.05511,0.853923 11.388813,0.0168 z"
         id="path2132" />
      <path
         style="fill:#1d1d19;stroke-width:0.32"
         d="m 32.640001,59.333515 c -0.44,-0.07754 -1.664,-0.295974 -2.72,-0.485424 -8.594245,-1.541817 -16.2203,-8.959869 -18.567182,-18.060752 -0.812724,-3.151629 -0.754109,-8.759108 0.126262,-12.079088 1.783594,-6.726139 6.302632,-12.333683 12.565248,-15.591854 3.656577,-1.90236 6.707737,-2.618554 11.155672,-2.618554 4.447933,0 7.499095,0.716194 11.155671,2.618554 6.262464,3.258092 10.78103,8.864942 12.565494,15.591854 0.914858,3.448742 0.914858,8.894758 0,12.343501 -1.280777,4.828166 -4.433664,9.744662 -8.208918,12.800688 -2.261482,1.830646 -6.903671,4.189635 -9.570365,4.863306 -1.95656,0.494272 -7.087124,0.867075 -8.501882,0.617769 z m 9.44,-1.406496 c 7.424154,-2.323929 12.939354,-7.716477 15.631057,-15.283431 0.941628,-2.647123 0.997286,-3.06254 0.997286,-7.443587 0,-4.373748 -0.0568,-4.799639 -0.989862,-7.422052 -2.579236,-7.249049 -7.84738,-12.517192 -15.09643,-15.096428 -2.622412,-0.933064 -3.048304,-0.989864 -7.422051,-0.989864 -4.373748,0 -4.799639,0.0568 -7.422052,0.989864 -12.927607,4.599686 -19.4438633,18.240107 -14.755724,30.888023 2.718689,7.334627 9.350487,13.070077 17.174243,14.852989 2.896554,0.66008 9.005588,0.405347 11.883533,-0.495514 z"
         id="path2130" />
    </g>
  </g>
</svg>
